<?xml version="1.0" encoding="utf-8"?>
<!-- Generator: Adobe Illustrator 25.2.1, SVG Export Plug-In . SVG Version: 6.00 Build 0)  -->
<svg version="1.1" id="Layer_1" xmlns:svg="http://www.w3.org/2000/svg"
	 xmlns="http://www.w3.org/2000/svg" xmlns:xlink="http://www.w3.org/1999/xlink" x="0px" y="0px" viewBox="0 0 100 100"
	 style="enable-background:new 0 0 100 100;" xml:space="preserve">
<style type="text/css">
	.st0{fill:#FFA600;}
</style>
<path class="st0" d="M21,12.2c0-4,3.3-7.2,7.3-7.2h7.3c4.1,0,7.4,3.2,7.4,7.2v75.6c0,4-3.3,7.2-7.3,7.2h-7.3c-4.1,0-7.4-3.2-7.4-7.2
	V12.2C21,12.2,21,12.2,21,12.2z M57,12.2c0-4,3.3-7.2,7.3-7.2h7.3c4.1,0,7.4,3.2,7.4,7.2v75.6c0,4-3.3,7.2-7.3,7.2h-7.3
	c-4.1,0-7.4-3.2-7.4-7.2V12.2C57,12.2,57,12.2,57,12.2z"/>
</svg>
