<?xml version="1.0" encoding="utf-8"?>
<!-- Generator: Adobe Illustrator 25.2.1, SVG Export Plug-In . SVG Version: 6.00 Build 0)  -->
<svg version="1.1" id="Layer_1" xmlns:svg="http://www.w3.org/2000/svg"
	 xmlns="http://www.w3.org/2000/svg" xmlns:xlink="http://www.w3.org/1999/xlink" x="0px" y="0px" viewBox="0 0 100 100"
	 style="enable-background:new 0 0 100 100;" xml:space="preserve">
<style type="text/css">
	.st0{fill:#FFA600;}
</style>
<path class="st0" d="M93.4,57.5c0-4.4-3.6-8.1-8.1-8.1s-8.1,3.6-8.1,8.1v0.1c-0.4,14.3-12.1,25.8-26.6,25.9
	c-14.7,0-26.7-11.9-26.7-26.6c0-14.5,11.4-26.2,25.8-26.7v15.7l29.4-22.5L49.7,1v13.1C26.5,14.6,7.9,33.5,7.9,56.9
	c0,23.7,19.2,42.7,42.8,42.7c23.3,0,42.2-18.7,42.7-41.9L93.4,57.5L93.4,57.5z"/>
</svg>
